<?xml version="1.0" standalone="no"?>
<!DOCTYPE svg PUBLIC "-//W3C//DTD SVG 20010904//EN"
        "http://www.w3.org/TR/2001/REC-SVG-20010904/DTD/svg10.dtd">
<svg version="1.0" xmlns="http://www.w3.org/2000/svg"
     width="256.000000px" height="256.000000px" viewBox="0 0 500.000000 500.000000"
     preserveAspectRatio="xMidYMid meet">

    <g transform="translate(0.000000,500.000000) scale(0.100000,-0.100000)"
       fill="#000000" stroke="none">
        <path d="M1340 4989 c-194 -21 -424 -97 -592 -196 -419 -248 -689 -669 -738
-1152 -14 -139 -14 -2143 0 -2282 72 -717 632 -1277 1349 -1349 139 -14 2143
-14 2282 0 717 72 1277 632 1349 1349 14 139 14 2143 0 2282 -72 717 -632
1277 -1349 1349 -127 12 -2177 11 -2301 -1z m1000 -2489 c0 -957 -3 -1740 -8
-1740 -4 0 -98 94 -210 209 l-203 210 -162 568 -162 568 -5 -400 -5 -400 -203
207 -202 207 0 571 0 570 201 205 c111 113 205 205 209 205 3 0 78 -232 166
-515 l159 -515 5 688 5 688 200 207 c110 114 203 207 207 207 5 0 8 -783 8
-1740z m893 1170 l555 -565 -134 -135 -134 -135 -220 220 -220 220 0 -775 0
-775 220 220 220 220 130 -130 c71 -71 130 -133 130 -137 0 -9 -1097 -1132
-1111 -1136 -5 -2 -9 677 -9 1738 0 1055 4 1740 9 1738 5 -1 259 -257 564
-568z m-2274 -1172 l0 -343 -164 170 c-91 94 -164 173 -162 177 3 9 317 338
323 338 2 0 4 -154 3 -342z m3250 170 l164 -168 -164 -167 c-90 -93 -167 -169
-171 -171 -5 -2 -8 150 -8 338 0 188 3 340 8 338 4 -1 81 -78 171 -170z"/>
    </g>
</svg>
